
<svg xmlns="http://www.w3.org/2000/svg" version="1.1" xmlns:xlink="http://www.w3.org/1999/xlink" preserveAspectRatio="none" x="0px" y="0px" width="250px" height="250px" viewBox="0 0 250 250">
<defs>
<linearGradient id="Gradient_1" gradientUnits="userSpaceOnUse" x1="83.3" y1="181.95" x2="83.3" y2="37.64999999999999" spreadMethod="pad">
<stop  offset="0%" stop-color="#7450FF"/>

<stop  offset="100%" stop-color="#2A81FF"/>
</linearGradient>

<linearGradient id="Gradient_2" gradientUnits="userSpaceOnUse" x1="164.55" y1="215.35" x2="164.55" y2="71.04999999999998" spreadMethod="pad">
<stop  offset="0%" stop-color="#7450FF"/>

<stop  offset="100%" stop-color="#2A81FF"/>
</linearGradient>

<g id="Layer0_0_FILL">
<path fill="#000000" stroke="none" d="
M 150.2 71.6
Q 125.95 74.3 108.1 92.2 98.2 102.05 93.05 113.7
L 126.25 113.7
Q 124.6 126.15 115.4 135.35 104.3 146.45 88.6 146.45
L 87.1 146.6
Q 87.8 165.95 97.8 181.55 121.9 178.7 139.75 160.8 150.35 150.25 155.6 137.65 160.9 124.8 160.9 109.8 160.9 88.4 150.2 71.6 Z"/>

<path fill="url(#Gradient_1)" stroke="none" d="
M 150.2 71.6
Q 145.85 64.85 139.75 58.75 118.65 37.65 88.75 37.65 58.8 37.65 37.7 58.75 16.6 79.85 16.6 109.8 16.6 139.7 37.7 160.8 58.8 181.95 88.75 181.95 93.35 181.95 97.8 181.55 87.8 165.95 87.1 146.6
L 87.1 146.45
Q 72.2 145.9 61.55 135.35 52.45 126.15 50.85 113.7
L 93.05 113.7
Q 98.2 102.05 108.1 92.2 125.95 74.3 150.2 71.6 Z"/>

<path fill="url(#Gradient_2)" stroke="none" d="
M 210.15 92.2
Q 203.05 85.1 195 80.4 179 71.05 159.1 71.05 154.5 71.05 150.2 71.6 160.9 88.4 160.9 109.8 160.9 124.8 155.6 137.65 150.35 150.25 139.75 160.8 121.9 178.7 97.8 181.55 102 188.15 108.1 194.25 115 201.15 122.85 205.9 132.3 211.15 137.75 212.4 147.75 215.35 159.1 215.35 179 215.35 195 206.05 203.05 201.35 210.15 194.25 231.25 173.15 231.25 143.2 231.25 113.3 210.15 92.2 Z"/>
</g>
</defs>

<g transform="matrix( 1, 0, 0, 1, 0,0) ">
<use xlink:href="#Layer0_0_FILL"/>
</g>
</svg>
