<?xml version="1.0" encoding="UTF-8"?>
<svg width="216px" height="179px" viewBox="0 0 216 179" version="1.1" xmlns="http://www.w3.org/2000/svg" xmlns:xlink="http://www.w3.org/1999/xlink">
    <!-- Generator: Sketch 50.2 (55047) - http://www.bohemiancoding.com/sketch -->
    <title>squad-ai-logo-hack@2x</title>
    <desc>Created with Sketch.</desc>
    <defs>
        <linearGradient x1="49.9251497%" y1="100%" x2="49.9251497%" y2="-4.92406608e-15%" id="linearGradient-1">
            <stop stop-color="#BA68C8" offset="0%"></stop>
            <stop stop-color="#6A1B9A" offset="100%"></stop>
        </linearGradient>
        <linearGradient x1="50.0187336%" y1="100%" x2="50.0187336%" y2="-9.84813217e-15%" id="linearGradient-2">
            <stop stop-color="#BA68C8" offset="0%"></stop>
            <stop stop-color="#6A1B9A" offset="100%"></stop>
        </linearGradient>
    </defs>
    <g id="squad-ai-logo-hack" stroke="none" stroke-width="1" fill="none" fill-rule="evenodd">
        <g id="squad-ai-logo" fill-rule="nonzero">
            <path d="M134.2,34.6 C118.033333,36.4 104,43.2666667 92.1,55.2 C85.5,61.7666667 80.4833333,68.9333333 77.05,76.7 L110.25,76.7 C109.15,85 105.533333,92.2166667 99.4,98.35 C92,105.75 83.0666667,109.45 72.6,109.45 L71.1,109.6 C71.5666667,122.5 75.1333333,134.15 81.8,144.55 C97.8666667,142.65 111.85,135.733333 123.75,123.8 C130.816667,116.766667 136.1,109.05 139.6,100.65 C143.133333,92.0833333 144.9,82.8 144.9,72.8 C144.9,58.5333333 141.333333,45.8 134.2,34.6 Z" id="Shape" fill="#220236"></path>
            <path d="M134.2,34.6 C131.3,30.1 127.816667,25.8166667 123.75,21.75 C109.683333,7.68333333 92.6833333,0.65 72.75,0.65 C52.7833333,0.65 35.7666667,7.68333333 21.7,21.75 C7.63333333,35.8166667 0.6,52.8333333 0.6,72.8 C0.6,92.7333333 7.63333333,109.733333 21.7,123.8 C35.7666667,137.9 52.7833333,144.95 72.75,144.95 C75.8166667,144.95 78.8333333,144.816667 81.8,144.55 C75.1333333,134.15 71.5666667,122.5 71.1,109.6 L71.1,109.45 C61.1666667,109.083333 52.65,105.383333 45.55,98.35 C39.4833333,92.2166667 35.9166667,85 34.85,76.7 L77.05,76.7 C80.4833333,68.9333333 85.5,61.7666667 92.1,55.2 C104,43.2666667 118.033333,36.4 134.2,34.6 Z" id="Shape" fill="url(#linearGradient-1)"></path>
            <path d="M194.15,55.2 C189.416667,50.4666667 184.366667,46.5333333 179,43.4 C168.333333,37.1666667 156.366667,34.05 143.1,34.05 C140.033333,34.05 137.066667,34.2333333 134.2,34.6 C141.333333,45.8 144.9,58.5333333 144.9,72.8 C144.9,82.8 143.133333,92.0833333 139.6,100.65 C136.1,109.05 130.816667,116.766667 123.75,123.8 C111.85,135.733333 97.8666667,142.65 81.8,144.55 C84.6,148.95 88.0333333,153.183333 92.1,157.25 C96.7,161.85 101.616667,165.733333 106.85,168.9 C113.15,172.4 118.116667,174.566667 121.75,175.4 C128.416667,177.366667 135.533333,178.35 143.1,178.35 C156.366667,178.35 168.333333,175.25 179,169.05 C184.366667,165.916667 189.416667,161.983333 194.15,157.25 C208.216667,143.183333 215.25,126.166667 215.25,106.2 C215.25,86.2666667 208.216667,69.2666667 194.15,55.2 Z" id="Shape" fill="url(#linearGradient-2)"></path>
        </g>
        <path d="M35,76 L109.991816,76 C109.692581,94.8246717 93.0196965,110 72.495908,110 C51.9721195,110 35.2992353,94.8246717 35,76 Z" id="Combined-Shape" fill="#FFFFFF"></path>
    </g>
</svg>